<?xml version="1.0" standalone="no"?>
<!DOCTYPE svg PUBLIC "-//W3C//DTD SVG 20010904//EN" "http://www.w3.org/TR/2001/REC-SVG-20010904/DTD/svg10.dtd">
<!-- Created using Krita: https://krita.org -->
<svg xmlns="http://www.w3.org/2000/svg" 
    xmlns:xlink="http://www.w3.org/1999/xlink"
    xmlns:krita="http://krita.org/namespaces/svg/krita"
    xmlns:sodipodi="http://sodipodi.sourceforge.net/DTD/sodipodi-0.dtd"
    width="172.8pt"
    height="172.8pt"
    viewBox="0 0 172.8 172.8">
<defs/>
<path id="shape0" transform="matrix(1.8 0 0 1.8 3.54600134075084 17.8517212459495)" fill="#33373b" stroke-opacity="0" stroke="#000000" stroke-width="0" stroke-linecap="square" stroke-linejoin="bevel" d="M30.4695 73.648C19.5528 63.7721 9.43632 53.6476 3.39648 40.3269C-1.47584 29.5812 -1.58903 18.9241 6.2433 9.39638C17.0429 -3.74085 37.198 -3.72659 47.5275 13.6715C48.1074 13.0376 48.0034 12.4834 48.4213 11.874C55.8545 1.03422 66.6414 -2.63435 77.7988 1.90598C88.9437 6.4413 95.6756 18.6483 93.6221 30.6333C91.4736 43.1722 83.9548 52.6932 75.7938 61.7497C71.9061 66.0639 67.3921 69.8067 63.3013 73.9461C54.2171 83.1384 43.2171 86.3529 30.4695 73.648M53.4611 14.1987C48.9885 20.8241 50.0222 21.8916 49.5639 27.1348C49.1103 28.4122 48.9796 28.5553 47.09 29.4224C44.3424 27.7981 44.6932 27.7619 44.2674 26.5875C43.8442 25.7933 44.1605 24.6263 44.0627 23.6342C43.197 14.8469 36.2267 7.3703 27.609 5.96099C19.7575 4.67699 11.5795 9.29441 7.87516 17.2692C3.72209 26.2102 6.24899 34.4924 10.8322 42.3846C18.0416 54.7989 28.219 64.609 39.1843 73.6073C43.9516 77.5195 50.5142 77.3312 55.2639 73.2217C61.0412 68.2231 66.7368 63.0649 71.9402 57.4839C78.7597 50.1694 84.8541 42.2212 87.4746 32.272C90.1572 22.0869 85.8769 12.2366 76.9846 7.7402C68.8925 3.64852 60.8144 5.731 53.4611 14.1987Z" sodipodi:nodetypes="cccccccccccccccccccccccc"/>
</svg>
